<?xml version="1.0" encoding="UTF-8" standalone="no"?>
<!DOCTYPE svg PUBLIC "-//W3C//DTD SVG 1.1//EN" "http://www.w3.org/Graphics/SVG/1.1/DTD/svg11.dtd">
<svg width="100%" height="100%" viewBox="0 0 512 512" version="1.1" xmlns="http://www.w3.org/2000/svg" xmlns:xlink="http://www.w3.org/1999/xlink" xml:space="preserve" xmlns:serif="http://www.serif.com/" style="fill-rule:evenodd;clip-rule:evenodd;stroke-linecap:round;stroke-linejoin:round;stroke-miterlimit:1.5;">
    <g transform="matrix(0.962039,0,0,1,11.121531,9.846154)">
        <path d="M478.242,115.419L478.242,393.768C478.242,431.333 446.54,461.832 407.493,461.832L116.698,461.832C77.65,461.832 45.949,431.333 45.949,393.768L45.949,115.419C45.949,77.854 77.65,47.355 116.698,47.355L407.493,47.355C446.54,47.355 478.242,77.854 478.242,115.419Z" style="fill:none;stroke:black;stroke-width:18.66px;"/>
    </g>
    <g transform="matrix(0.962039,0,0,1,11.121531,9.846154)">
        <path d="M367.541,83.39L407.493,47.355C446.54,47.355 478.242,77.854 478.242,115.419L478.242,393.768C478.242,431.333 446.54,461.832 407.493,461.832L116.698,461.832C77.65,461.832 45.949,431.333 45.949,393.768L97.065,342.202L97.043,372.822C97.023,400.251 120.155,422.535 148.666,422.554L359.928,422.694C388.44,422.713 411.603,400.459 411.623,373.03L411.796,132.614C411.813,107.592 392.564,86.851 367.541,83.39Z" style="stroke:black;stroke-width:18.66px;"/>
    </g>
    <g transform="matrix(0,0.662098,-0.655611,0,368.222702,25.692972)">
        <path d="M342.658,274.52L342.658,327.267L177.7,256.938L342.658,186.608L342.658,239.355L478.711,239.355L478.711,274.52L342.658,274.52Z"/>
    </g>
    <g transform="matrix(0.700077,0.000483,-0.000566,0.819859,72.539955,53.706818)">
        <path d="M478.242,107.973L478.242,401.214C478.242,434.67 446.433,461.832 407.252,461.832L116.938,461.832C77.758,461.832 45.949,434.67 45.949,401.214L45.949,107.973C45.949,74.517 77.758,47.355 116.938,47.355L407.252,47.355C446.433,47.355 478.242,74.517 478.242,107.973Z" style="fill:none;stroke:black;stroke-width:24.02px;"/>
    </g>
</svg>
